<svg width="1920" height="558" viewBox="0 0 1920 558" fill="none" xmlns="http://www.w3.org/2000/svg">
<path d="M0 349.349L27 280.603C53 210.651 107 71.9523 160 82.8069C213 94.8677 267 256.482 320 280.603C373 303.518 427 187.735 480 187.735C533 187.735 587 303.518 640 326.434C693 349.349 747 280.603 800 245.627C853 210.651 907 210.651 960 210.651C1013 210.651 1067 210.651 1120 210.651C1173 210.651 1227 210.651 1280 175.675C1333 140.698 1387 71.9523 1440 36.9761C1493 2 1547 2 1600 24.9154C1653 49.0369 1707 94.8677 1760 94.8677C1813 94.8677 1867 49.0369 1893 24.9154L1920 2" stroke="url(#paint0_linear)" stroke-width="3"/>
<g filter="url(#filter0_f)">
<path d="M0 359.349L27 290.603C53 220.651 107 81.9523 160 92.8069C213 104.868 267 266.482 320 290.603C373 313.518 427 197.735 480 197.735C533 197.735 587 313.518 640 336.434C693 359.349 747 290.603 800 255.627C853 220.651 907 220.651 960 220.651C1013 220.651 1067 220.651 1120 220.651C1173 220.651 1227 220.651 1280 185.675C1333 150.698 1387 81.9523 1440 46.9761C1493 12 1547 12 1600 34.9154C1653 59.0369 1707 104.868 1760 104.868C1813 104.868 1867 59.0369 1893 34.9154L1920 12" stroke="url(#paint1_linear)" stroke-width="3"/>
</g>
<defs>
<filter id="filter0_f" x="-11.3962" y="0.856323" width="1942.37" height="369.041" filterUnits="userSpaceOnUse" color-interpolation-filters="sRGB">
<feFlood flood-opacity="0" result="BackgroundImageFix"/>
<feBlend mode="normal" in="SourceGraphic" in2="BackgroundImageFix" result="shape"/>
<feGaussianBlur stdDeviation="5" result="effect1_foregroundBlur"/>
</filter>
<linearGradient id="paint0_linear" x1="1.46171e-06" y1="329" x2="1920" y2="333" gradientUnits="userSpaceOnUse">
<stop offset="0.015625" stop-color="#1CBBFF"/>
<stop offset="0.328125" stop-color="#8D00FC"/>
<stop offset="0.630208" stop-color="#00FCDE"/>
<stop offset="0.916667" stop-color="#0062FF"/>
</linearGradient>
<linearGradient id="paint1_linear" x1="1.46171e-06" y1="339" x2="1920" y2="343" gradientUnits="userSpaceOnUse">
<stop offset="0.015625" stop-color="#1CBBFF"/>
<stop offset="0.328125" stop-color="#8D00FC"/>
<stop offset="0.630208" stop-color="#00FCDE"/>
<stop offset="0.916667" stop-color="#0062FF"/>
</linearGradient>
</defs>
</svg>
